<?xml version="1.0" encoding="UTF-8" standalone="no"?>
<svg
   xmlns:dc="http://purl.org/dc/elements/1.1/"
   xmlns:cc="http://creativecommons.org/ns#"
   xmlns:rdf="http://www.w3.org/1999/02/22-rdf-syntax-ns#"
   xmlns:svg="http://www.w3.org/2000/svg"
   xmlns="http://www.w3.org/2000/svg"
   xmlns:sodipodi="http://sodipodi.sourceforge.net/DTD/sodipodi-0.dtd"
   xmlns:inkscape="http://www.inkscape.org/namespaces/inkscape"
   height="128"
   version="1.1"
   viewBox="0 0 128 128"
   width="128"
   id="svg3707"
   sodipodi:docname="icon.svg"
   inkscape:version="0.92.0 r15299"
   inkscape:export-filename="C:\Users\Anton\Documents\Source\wimm\src\assets\icon.png"
   inkscape:export-xdpi="96"
   inkscape:export-ydpi="96">
  <metadata
     id="metadata3711">
    <rdf:RDF>
      <cc:Work
         rdf:about="">
        <dc:format>image/svg+xml</dc:format>
        <dc:type
           rdf:resource="http://purl.org/dc/dcmitype/StillImage" />
        <dc:title />
      </cc:Work>
    </rdf:RDF>
  </metadata>
  <sodipodi:namedview
     pagecolor="#ffffff"
     bordercolor="#666666"
     borderopacity="1"
     objecttolerance="10"
     gridtolerance="10"
     guidetolerance="10"
     inkscape:pageopacity="0"
     inkscape:pageshadow="2"
     inkscape:window-width="1827"
     inkscape:window-height="1051"
     id="namedview3709"
     showgrid="false"
     inkscape:snap-bbox="true"
     inkscape:zoom="3.125741"
     inkscape:cx="-16.45974"
     inkscape:cy="67.035985"
     inkscape:window-x="84"
     inkscape:window-y="-9"
     inkscape:window-maximized="1"
     inkscape:current-layer="layer2"
     inkscape:measure-start="14.365,9.44471"
     inkscape:measure-end="14.4216,9.38815"
     inkscape:snap-page="true"
     inkscape:snap-grids="true" />
  <desc
     id="desc3700" />
  <defs
     id="defs3702">
    <clipPath
       clipPathUnits="userSpaceOnUse"
       id="clipPath3785">
      <g
         inkscape:label="Clip"
         id="use3787">
        <path
           inkscape:connector-curvature="0"
           id="path3793"
           d="M 6,11 V 4.9973917 C 6,3.8958578 6.8942762,3 7.9974219,3 H 23.002578 C 24.109075,3 25,3.8942627 25,4.9973917 V 11 Z M 5,23 H 3.9942819 C 2.3405687,23 1,21.654258 1,19.994202 V 15.005798 C 1,13.348816 2.3405857,12 3.9942819,12 H 27.005718 C 28.659431,12 30,13.345742 30,15.005798 v 4.988404 C 30,21.651184 28.659414,23 27.005718,23 H 26 V 20 H 5 Z m 19,-6 c 0.552285,0 1,-0.447715 1,-1 0,-0.552285 -0.447715,-1 -1,-1 -0.552285,0 -1,0.447715 -1,1 0,0.552285 0.447715,1 1,1 z M 6,21 v 8 h 1 v -8 z m 2,0 v 7 h 1 v -7 z m 2,0 v 8 h 1 v -8 z m 2,0 v 6 h 1 v -6 z m 2,0 v 7 h 1 v -7 z m 2,0 v 6 h 1 v -6 z m 2,0 v 8 h 1 v -8 z m 4,0 v 7 h 1 v -7 z m 2,0 v 8 h 1 v -8 z m -4,0 v 6 h 1 v -6 z" />
      </g>
    </clipPath>
  </defs>
  <g
     inkscape:groupmode="layer"
     id="layer1"
     inkscape:label="shredder"
     style="display:inline;opacity:1"
     transform="translate(0,96)">
    <g
       style="fill:#929292;fill-opacity:1;fill-rule:evenodd;stroke:none;stroke-width:1"
       id="Page-1"
       transform="matrix(4.3536875,0,0,4.3536875,-3.3536875,-97.256938)">
      <path
         style="fill:#24a400;fill-opacity:1"
         sodipodi:nodetypes="cssssssssccccsssssccccccccccccccccccccccccccccccccccccccccccaccccccc"
         d="M 5,23 H 3.9942819 C 2.3405687,23 1,21.654258 1,19.994202 V 15.005798 C 1,13.348816 2.3405857,12 3.9942819,12 H 27.005718 C 28.659431,12 30,13.345742 30,15.005798 v 4.988404 C 30,21.651184 28.659414,23 27.005718,23 H 26 V 20 H 5 Z m 19,-6 c 0.552285,0 1,-0.447715 1,-1 0,-0.552285 -0.447715,-1 -1,-1 -0.552285,0 -1,0.447715 -1,1 0,0.552285 0.447715,1 1,1 z M 6,21 v 8 h 1 v -8 z m 2,0 v 7 h 1 v -7 z m 2,0 v 8 h 1 v -8 z m 2,0 v 6 h 1 v -6 z m 2,0 v 7 h 1 v -7 z m 2,0 v 6 h 1 v -6 z m 2,0 v 8 h 1 v -8 z m 4,0 v 7 h 1 v -7 z m 2,0 v 8 h 1 v -8 z m -4,0 v 6 h 1 v -6 z"
         id="shredder"
         inkscape:connector-curvature="0" />
      <rect
         y="9.6841898"
         x="3.9789739"
         height="1.2964667"
         width="2.0400295"
         id="rect3806"
         style="opacity:0;fill:#929292;fill-opacity:1;stroke-width:0.2;stroke-miterlimit:4;stroke-dasharray:none" />
      <rect
         y="1.8221207"
         x="5.2973084"
         height="9.4680395"
         width="19.990747"
         id="rect4625"
         style="opacity:0;fill:#929292;fill-opacity:1;stroke-width:0.2;stroke-miterlimit:4;stroke-dasharray:none;paint-order:markers fill stroke" />
      <ellipse
         style="opacity:0;fill:#929292;fill-opacity:1;stroke-width:0.2;stroke-miterlimit:4;stroke-dasharray:none;paint-order:markers fill stroke"
         id="path1233"
         cx="13.754442"
         cy="9.6324453"
         rx="3.0655222"
         ry="1.8945969" />
    </g>
    <rect
       style="fill:#ffffff;fill-opacity:0"
       id="rect3758"
       width="25.152542"
       height="10.101695"
       x="1.7627119"
       y="1.2881355" />
    <rect
       style="fill:#ffffff;fill-opacity:0"
       id="rect3762"
       width="22.576271"
       height="9.7627115"
       x="2.9830508"
       y="1.6949153" />
    <rect
       style="fill:#000000;fill-opacity:0"
       id="rect3768"
       width="21.220339"
       height="9.2203379"
       x="4.3389831"
       y="2.2372882" />
    <rect
       style="fill:#ffffff;fill-opacity:0"
       id="rect3776"
       width="21.333052"
       height="8.8448277"
       x="4.7939444"
       y="2.3015151" />
    <path
       style="fill:#ffffff;fill-opacity:0;stroke-width:0.02396972"
       d="M 6.0191714,7.8585997 C 6.0193357,4.8025768 6.0203714,4.7322342 6.0680774,4.5328009 6.2385535,3.8201492 6.7969155,3.2591175 7.529096,3.0647969 l 0.2037426,-0.054073 h 7.7661894 7.76619 l 0.203743,0.053592 c 0.691645,0.1819302 1.210468,0.6715466 1.441783,1.3606212 l 0.05632,0.1677881 0.0065,3.1939654 0.0065,3.1939654 H 15.499537 6.0190034 Z"
       id="path3778"
       inkscape:connector-curvature="0" />
    <rect
       style="opacity:0;fill:#ffffff;fill-opacity:1;stroke-width:0.2;stroke-miterlimit:4;stroke-dasharray:none;paint-order:markers fill stroke"
       id="rect4627"
       width="20.142166"
       height="8.9643536"
       x="5.4171572"
       y="2.493273" />
    <rect
       style="opacity:0;fill:#ffffff;fill-opacity:1;stroke-width:0.2;stroke-miterlimit:4;stroke-dasharray:none;paint-order:markers fill stroke"
       id="rect4629"
       width="1.462153"
       height="3.4516399"
       x="7.4545832"
       y="1.7502116" />
    <rect
       style="opacity:0;fill:#ffffff;fill-opacity:1;stroke-width:0.2;stroke-miterlimit:4;stroke-dasharray:none;paint-order:markers fill stroke"
       id="rect33"
       width="8.3894024"
       height="6.04037"
       x="3.9789739"
       y="2.5891519" />
    <rect
       style="opacity:0;fill:#000000;fill-opacity:0;stroke-width:0.2;stroke-miterlimit:4;stroke-dasharray:none;paint-order:markers fill stroke"
       id="rect843"
       width="5.4411268"
       height="4.0029435"
       x="8.5092506"
       y="4.1951232" />
    <rect
       style="opacity:0;fill:#000000;fill-opacity:0;stroke-width:0.2;stroke-miterlimit:4;stroke-dasharray:none;paint-order:markers fill stroke"
       id="rect853"
       width="1.4381833"
       height="1.1265769"
       x="11.793103"
       y="6.1606402" />
    <rect
       style="opacity:0;fill:#000000;fill-opacity:0;stroke-width:0.2;stroke-miterlimit:4;stroke-dasharray:none;paint-order:markers fill stroke"
       id="rect855"
       width="19.70311"
       height="8.413372"
       x="5.5849452"
       y="2.8767884" />
  </g>
  <g
     inkscape:groupmode="layer"
     id="layer2"
     inkscape:label="money"
     style="display:inline"
     transform="translate(0,96)">
    <rect
       style="opacity:0;fill:#000000;fill-opacity:0;stroke-width:0.2;stroke-miterlimit:4;stroke-dasharray:none;paint-order:markers fill stroke"
       id="rect857"
       width="2.8284271"
       height="1.5100925"
       x="5.5849452"
       y="2.1816666" />
    <rect
       style="opacity:0;fill:#ffffff;fill-opacity:0;stroke-width:0.2;stroke-miterlimit:4;stroke-dasharray:none;paint-order:markers fill stroke"
       id="rect859"
       width="11.097981"
       height="9.2762823"
       x="3.8111856"
       y="1.534484" />
    <ellipse
       style="opacity:0;fill:#929292;fill-opacity:1;stroke-width:0.2;stroke-miterlimit:4;stroke-dasharray:none;paint-order:markers fill stroke"
       id="path1235"
       cx="12.442129"
       cy="7.3419619"
       rx="3.6195285"
       ry="3.1670876" />
    <ellipse
       style="opacity:0;fill:#929292;fill-opacity:1;stroke-width:0.2;stroke-miterlimit:4;stroke-dasharray:none;paint-order:markers fill stroke"
       id="path1237"
       cx="12.102798"
       cy="19.755814"
       rx="2.7146463"
       ry="1.5552661" />
    <path
       style="opacity:0;fill:#929292;fill-opacity:1;stroke-width:0.2;stroke-miterlimit:4;stroke-dasharray:none;paint-order:markers fill stroke"
       id="path1239"
       sodipodi:type="arc"
       sodipodi:cx="12.215909"
       sodipodi:cy="7.5399051"
       sodipodi:rx="3.3367529"
       sodipodi:ry="3.3650305"
       sodipodi:start="0.052359878"
       sodipodi:end="1.7143924"
       d="m 15.548089,7.7160172 a 3.3367529,3.3650305 0 0 1 -1.214859,2.4246718 3.3367529,3.3650305 0 0 1 -2.594821,0.729613 l 0.4775,-3.3303969 z" />
    <ellipse
       style="opacity:0;fill:#929292;fill-opacity:1;stroke-width:0.2;stroke-miterlimit:4;stroke-dasharray:none;paint-order:markers fill stroke"
       id="path1241"
       cx="13.884285"
       cy="9.2082815"
       rx="1.7814867"
       ry="1.3856008" />
    <path
       style="opacity:0;fill:#929292;fill-opacity:1;stroke-width:0.2;stroke-miterlimit:4;stroke-dasharray:none;paint-order:markers fill stroke"
       id="path1243"
       ry="0.73521674"
       rx="0.94729847"
       cy="9.8303881"
       cx="13.643926"
       d=""
       inkscape:connector-curvature="0" />
    <g
       id="g868"
       style="fill:#24a400;fill-opacity:1"
       transform="matrix(4.3536875,0,0,4.3536875,-3.3536875,-97.256938)">
      <path
         inkscape:connector-curvature="0"
         id="path3740"
         d="M 6.5761719,1.0527344 C 6.5721394,1.0570584 6.5436655,6.5600229 6.515625,11 H 8.4667969 L 8.4863281,7.0371094 8.8027344,7.0078125 C 10.784515,6.8176189 12.319001,5.3140773 12.484375,3.4003906 l 0.03125,-0.3476562 h 3.005859 3.007813 l 0.0332,0.3476562 c 0.05122,0.5455474 0.159675,0.9313351 0.410156,1.4492188 0.401232,0.8295681 0.983314,1.4192516 1.798828,1.8222656 0.476659,0.2355569 1.107839,0.4076821 1.5,0.4082031 h 0.25586 L 22.511719,10.095703 22.507812,11 h 1.947266 c 0.01598,-1.221646 0.03708,-3.9389513 0.04687,-6.0410156 l 0.01758,-3.8242188 h -2.59375 C 20.499083,1.1340776 16.464447,1.1126776 12.958984,1.0878906 9.4535194,1.0631086 6.5814719,1.0470344 6.5761719,1.0527344 Z"
         style="fill:#24a400;fill-opacity:1;stroke-width:0.04793944" />
      <path
         inkscape:connector-curvature="0"
         id="path4951"
         d="M 15.326172,8.4726562 A 3.7609162,3.7609162 0 0 0 11.779297,11 H 18.875 A 3.7609162,3.7609162 0 0 0 15.326172,8.4726562 Z"
         style="opacity:1;fill:#24a400;fill-opacity:1;stroke-width:0.2;stroke-miterlimit:4;stroke-dasharray:none;paint-order:markers fill stroke" />
      <text
         transform="matrix(-0.01039455,1.0094504,-0.99053537,-0.00997633,0,0)"
         id="text4960"
         y="-8.1264915"
         x="2.7002611"
         style="font-style:normal;font-variant:normal;font-weight:normal;font-stretch:normal;font-size:4.22324419px;line-height:19.79645729px;font-family:Rockwell;-inkscape-font-specification:Rockwell;letter-spacing:0px;word-spacing:0px;fill:#24a400;fill-opacity:1;stroke:none;stroke-width:0.79185826px;stroke-linecap:butt;stroke-linejoin:miter;stroke-opacity:1"
         xml:space="preserve"><tspan
           style="fill:#24a400;fill-opacity:1;stroke-width:0.79185826px"
           y="-8.1264915"
           x="2.7002611"
           id="tspan4958"
           sodipodi:role="line">$</tspan></text>
      <text
         transform="matrix(-0.01039455,1.0094504,-0.99053535,-0.00997633,0,0)"
         id="text4960-8"
         y="-20.826298"
         x="2.5721629"
         style="font-style:normal;font-variant:normal;font-weight:normal;font-stretch:normal;font-size:4.22324419px;line-height:19.79645729px;font-family:Rockwell;-inkscape-font-specification:Rockwell;letter-spacing:0px;word-spacing:0px;display:inline;fill:#24a400;fill-opacity:1;stroke:none;stroke-width:0.79185826px;stroke-linecap:butt;stroke-linejoin:miter;stroke-opacity:1"
         xml:space="preserve"><tspan
           style="fill:#24a400;fill-opacity:1;stroke-width:0.79185826px"
           y="-20.826298"
           x="2.5721629"
           id="tspan4958-5"
           sodipodi:role="line">$</tspan></text>
    </g>
  </g>
</svg>
